<svg id="Layer_1" enable-background="new 0 0 509.094 509.094" height="512" viewBox="0 0 509.094 509.094" width="512" xmlns="http://www.w3.org/2000/svg"><g id="XMLID_2_"><path id="XMLID_426_" d="m71.293 84.994c-16.039 18.898 8.254 86.1 8.254 86.1s-62.52 25.331-64.383 51.507c-5.409 76.014 26.068 125.965 27.895 131.306l211.488 53.346 15-198.159-15-209.094c-71.955 0-137.794 31.43-183.254 84.994z" fill="#fdd034"/><path id="XMLID_232_" d="m254.547 0v407.253l3.333.841 208.156-54.187c2.088-5.635 28.511-48.066 28.511-113.907 0-132.643-107.345-240-240-240z" fill="#ff9000"/><circle id="XMLID_222_" cx="344.547" cy="149.094" fill="#ff641a" r="30"/><g id="XMLID_158_"><path id="XMLID_193_" d="m133.894 159.791c0-37.392-27.011-68.454-62.581-74.795-33.01 38.892-52.528 86.698-56.145 137.649 12.176 8.293 26.883 13.146 42.726 13.146 41.973 0 76-34.026 76-76z" fill="#ff9000"/></g><path id="XMLID_88_" d="m193.797 104.094h30v30h-30z" fill="#ff9000"/><path id="XMLID_57_" d="m388.797 224.094h30v30h-30z" fill="#ff641a"/><path id="XMLID_45_" d="m240.214 278.765v-32.171h-30v75h.083v21.75c0 8.684-7.065 15.75-15.75 15.75s-15.75-7.066-15.75-15.75v-28.53l-8.136-4.186c-5.932-3.054-18.863-7.689-32.1-10.641-14.628-3.261-29.448-3.775-44.047-1.532-43.003 6.612-68.604 34.618-77.614 46.353l-15.281 19.9 24.764 4.039c11.751 1.916 29.26 7.032 45.942 20.521 18.119 14.65 26.928 32.32 31.126 44.564l4.737 13.813 13.935-4.364c4.477-1.403 20.361-5.311 36.798 3.242 8.15 4.242 14.716 10.585 19.514 18.854l5.505 9.486c8.984-1.819 12.576-3.268 18.856-3.268 20.187 0 36 16.472 36 37.5h15.75l15-120-15-112.484c-4.966-.08-9.684.617-14.332 2.154z" fill="#3c3664"/><path id="XMLID_5_" d="m492.195 344.808c-9.01-11.734-34.607-39.741-77.613-46.353-46.309-7.113-78.54 15.497-81.649 16.359v28.53c0 8.684-7.065 15.75-15.75 15.75h-2.635c-8.685 0-15.75-7.066-15.75-15.75-.006-9.601.013-19.729-.017-21.75h.017v-75h-30v32.627c-4.53-1.645-9.328-2.534-14.25-2.611v232.484h14.25c0-23.825 22.084-41.81 45.647-36.602l10.709 2.37 5.505-9.486c4.799-8.269 11.364-14.612 19.515-18.854 16.438-8.554 32.32-4.644 36.798-3.242l13.936 4.364 4.737-13.813c12.151-35.444 42.397-59.431 77.067-65.084l24.764-4.039z" fill="#31294e"/></g></svg>