<svg xmlns="http://www.w3.org/2000/svg" xmlns:xlink="http://www.w3.org/1999/xlink" id="Capa_1" x="0" y="0" version="1.1" viewBox="0 0 512 512" xml:space="preserve" style="enable-background:new 0 0 512 512"><rect style="fill:#fe0b37" width="34.39" height="129.82" x="7.5" y="150.59"/><rect style="fill:#c60024" width="17.19" height="129.82" x="24.7" y="150.59"/><rect style="fill:#2487ff" width="44.06" height="168.12" x="41.89" y="131.44"/><rect style="fill:#016ef1" width="22.03" height="168.12" x="63.92" y="131.44"/><rect style="fill:#eb358a" width="51.37" height="207.6" x="85.95" y="111.7"/><rect style="fill:#c71468" width="25.68" height="207.6" x="111.64" y="111.7"/><rect style="fill:#2487ff" width="34.39" height="129.82" x="470.11" y="150.59"/><rect style="fill:#016ef1" width="17.19" height="129.82" x="470.11" y="150.59"/><rect style="fill:#eb358a" width="44.06" height="168.12" x="426.05" y="131.44"/><rect style="fill:#c71468" width="22.03" height="168.12" x="426.05" y="131.44"/><rect style="fill:#fe0b37" width="51.24" height="207.6" x="374.81" y="111.7"/><rect style="fill:#c60024" width="25.62" height="207.6" x="374.81" y="111.7"/><rect style="fill:#2487ff" width="237.62" height="237.63" x="137.19" y="96.68"/><rect style="fill:#016ef1" width="64.2" height="237.63" x="310.61" y="96.68"/><g><ellipse style="fill:#fff" cx="209.399" cy="245.877" rx="21.19" ry="27.009" transform="matrix(-0.3942 -0.919 0.919 -0.3942 65.9805 535.2463)"/><ellipse style="fill:#fff" cx="284.416" cy="245.874" rx="21.19" ry="27.009" transform="matrix(-0.3942 -0.919 0.919 -0.3942 170.5717 604.1839)"/></g><circle style="fill:#fe0b37" cx="379.96" cy="396.51" r="18.809"/><g><path style="fill:#020202" d="M512,143.086h-34.392V123.94h-44.063V104.2h-51.232V89.184H129.686V104.2H78.454v19.74H34.392 v19.146H0V287.91h34.392v19.146h44.063v19.741h51.232v15.016h252.627v-15.016h51.232v-19.741h44.063V287.91H512V143.086z M15,272.91V158.086h19.392V272.91H15z M49.392,292.055v-4.146V143.086v-4.146h29.063v153.115H49.392z M93.454,311.796v-4.741 V123.94v-4.74h36.232v192.596H93.454z M367.314,326.811H144.686v-0.016h0.137V104.2h-0.137v-0.016h222.627v0.016v222.596v0.015 H367.314z M418.546,311.796h-36.232V119.2h36.232v4.74v183.115V311.796z M462.608,292.055h-29.063V138.94h29.063v4.146V287.91 V292.055z M497,272.91h-19.392V158.086H497V272.91z"/><path style="fill:#020202" d="M317.706,136.735l-89.65,27.203v55.252c-1.604-0.748-3.298-1.374-5.079-1.848 c-7.883-2.099-16.719-1.324-24.884,2.179c-17.487,7.5-26.641,25.431-20.404,39.971c4.375,10.201,15.182,16.064,27.281,16.064 c5.146-0.001,10.525-1.061,15.742-3.298c13.256-5.685,21.715-17.364,22.32-29.015h0.023v-0.609c0.014-0.484,0.014-0.967,0-1.45 v-66.121l59.65-18.101v62.057c-1.496-0.673-3.07-1.238-4.717-1.676c-7.882-2.099-16.719-1.323-24.883,2.178 c-8.166,3.503-14.817,9.372-18.729,16.527c-4.178,7.641-4.789,16.186-1.676,23.444c4.375,10.201,15.182,16.064,27.281,16.064 c5.146-0.001,10.525-1.061,15.742-3.298c15.408-6.609,24.339-21.313,21.981-34.662V136.735H317.706z M214.8,258.471 c-9.718,4.168-20.4,1.928-23.326-4.893c-2.925-6.821,2.813-16.104,12.531-20.273c3.252-1.395,6.708-2.11,9.985-2.11 c1.783,0,3.513,0.212,5.128,0.642c2.313,0.615,6.453,2.26,8.213,6.362v0.001c0.438,1.021,0.659,2.101,0.725,3.207v1.284 C227.688,248.649,222.504,255.167,214.8,258.471z M289.813,258.471c-9.718,4.168-20.4,1.928-23.326-4.893 c-1.759-4.102-0.096-8.236,1.052-10.336c2.275-4.162,6.46-7.784,11.48-9.937c3.252-1.395,6.708-2.11,9.984-2.11 c1.783,0,3.513,0.212,5.128,0.642c2.313,0.615,6.453,2.26,8.213,6.362v0.001c0.148,0.345,0.258,0.7,0.362,1.056v5.754 C301.335,250.272,296.525,255.592,289.813,258.471z"/><path style="fill:#020202" d="M379.956,370.199c-11.901,0-21.976,7.945-25.213,18.809H39.945v15h314.797 c3.237,10.863,13.312,18.809,25.213,18.809s21.976-7.945,25.213-18.809h66.885v-15h-66.885 C401.932,378.144,391.857,370.199,379.956,370.199z M379.956,407.816c-6.235,0-11.309-5.073-11.309-11.309 c0-6.235,5.073-11.309,11.309-11.309c6.235,0,11.309,5.073,11.309,11.309C391.265,402.743,386.191,407.816,379.956,407.816z"/></g></svg>