<svg id="Capa_1" enable-background="new 0 0 512 512" height="512" viewBox="0 0 512 512" width="512" xmlns="http://www.w3.org/2000/svg"><g><path d="m256 51.911c87.498 0 146.943 28.491 176.684 84.681 1.94 3.668 6.488 5.068 10.158 3.127 3.668-1.942 5.068-6.489 3.126-10.158-32.551-61.497-96.464-92.679-189.968-92.679-82.077 0-141.614 24.216-176.958 71.975-26.861 36.295-39.379 86.971-36.203 146.551 2.377 44.591 12.489 78.103 12.918 79.508.039.127.081.253.127.379l10.586 29.027c.003.007.005.013.007.02l47.219 129.476.012.033.782 2.144c-21.11-3.754-38.869-18.108-46.868-38.676l-15.946-41.004c-5.893-15.156-7.548-31.637-4.786-47.661.214-1.242.112-2.519-.296-3.711-.147-.428-14.708-43.434-19.698-98.787-2.918-32.38-2.015-62.497 2.686-89.515 5.813-33.417 17.486-62.135 34.695-85.355 2.472-3.335 1.772-8.04-1.563-10.512-3.337-2.472-8.043-1.771-10.512 1.563-18.597 25.092-31.182 55.915-37.407 91.612-4.932 28.284-5.904 59.691-2.886 93.346 4.6 51.304 16.949 91.691 19.862 100.691-2.784 18.118-.755 36.669 5.896 53.775l15.946 41.004c5.663 14.563 15.475 26.924 28.372 35.747 12.896 8.822 27.972 13.486 43.599 13.486 5.058.141 8.926-5.386 7.06-10.089l-.404-1.107 41.483 6.686c1.259.213 2.566.062 3.77-.359l29.519-10.766c9.404-3.429 16.909-10.314 21.133-19.389 4.224-9.074 4.661-19.249 1.232-28.652l-26.04-71.402c-1.421-3.899-5.735-5.911-9.634-4.485-3.899 1.422-5.907 5.735-4.485 9.634l26.04 71.402c2.054 5.632 1.792 11.726-.738 17.16s-7.024 9.558-12.656 11.612l-22.46 8.191-60.468-165.802 22.46-8.191c11.628-4.236 24.534 1.769 28.773 13.395l8.715 23.896c3.767 9.259 17.207 4.268 14.119-5.15l-8.715-23.896c-7.079-19.41-28.63-29.445-48.041-22.364l-29.432 10.734c-1.233.44-2.346 1.201-3.205 2.185l-27.438 31.821-6.094-16.71c-.784-2.649-10.101-34.885-12.252-76.125-2.034-38.986 2.097-94.309 33.331-136.478 32.36-43.686 87.821-65.838 164.843-65.838zm-149.37 282.843 56.841 155.858-37.129-5.984-44.27-121.392z"/><path d="m497.595 176.249c-5.885-35.485-17.986-66.234-35.967-91.395-40.236-56.305-109.418-84.854-205.622-84.854h-.012c-79.864 0-141.405 19.799-182.911 58.847-7.014 7.073 2.827 17.51 10.297 10.946 38.627-36.339 96.702-54.764 172.625-54.764 91.05 0 156.108 26.419 193.366 78.523 37.842 52.92 40.264 123.656 35.632 173.678-5.068 54.723-19.455 97.292-19.6 97.716-.407 1.192-.509 2.467-.295 3.707 2.762 16.024 1.108 32.505-4.786 47.661l-15.946 41.004c-7.999 20.568-25.757 34.922-46.868 38.676l.782-2.144c.004-.011.008-.022.012-.033l47.219-129.476c.002-.007.005-.013.007-.02l10.586-29.027c.046-.125.088-.251.127-.379 1.166-3.817 28.268-94.412 2.2-175.546-1.27-3.951-5.51-6.126-9.453-4.856-3.952 1.27-6.125 5.502-4.856 9.453 24.088 74.967-.905 161.953-2.213 166.385l-6.094 16.71-27.438-31.822c-.86-.986-1.976-1.748-3.212-2.188l-29.425-10.731c-9.403-3.43-19.579-2.991-28.652 1.232-9.073 4.225-15.96 11.729-19.388 21.132l-45.089 123.634c-3.43 9.403-2.992 19.579 1.232 28.652 4.224 9.074 11.729 15.96 21.133 19.389l29.519 10.766c1.204.421 2.511.572 3.77.359l41.483-6.686-.404 1.107c-1.867 4.704 2.002 10.231 7.06 10.089 15.626 0 30.702-4.663 43.599-13.486 12.897-8.822 22.708-21.183 28.372-35.747l15.946-41.004c6.651-17.105 8.679-35.656 5.896-53.774 2.886-8.902 15.007-48.483 19.723-99.175 3.1-33.306 2.307-64.449-2.355-92.559zm-200.116 294.382c-2.529-5.434-2.792-11.529-.738-17.16l45.089-123.634c2.054-5.632 6.178-10.126 11.612-12.656 5.435-2.529 11.528-2.792 17.16-.739l22.461 8.191-60.468 165.802-22.46-8.191c-5.631-2.055-10.125-6.179-12.656-11.613zm51.05 19.981 56.841-155.858 24.559 28.482-44.271 121.392z"/></g></svg>