<?xml version="1.0" ?><svg enable-background="new 0 0 24 24" id="Layer_1" version="1.1" viewBox="0 0 24 24" xml:space="preserve" xmlns="http://www.w3.org/2000/svg" xmlns:xlink="http://www.w3.org/1999/xlink"><g><circle cx="12" cy="12" fill="#E83829" id="XMLID_2721_" r="12"/><path d="M12,0.25c5.3285522,0,9.8440552,3.4422607,11.4705811,8.2207642   C21.9632568,3.565979,17.3988037,0,12,0S2.0368042,3.565979,0.5294189,8.4706421C2.1559448,3.6922607,6.6713867,0.25,12,0.25z" fill="#FFFFFF" opacity="0.2"/><polygon fill="#FFFFFF" points="21.5,11 19,11 19,8.5 17,8.5 17,11 14.5,11 14.5,13 17,13 17,15.5 19,15.5 19,13 21.5,13  "/><path d="M12,23.75c-4.7450914,0-8.8374472-2.6986141-10.8253527-6.6640053   c-0.2444347-0.4875889-0.4570514-0.9943295-0.6351512-1.5175619c0.1608156,0.5232897,0.3563147,1.0308924,0.5838224,1.5202017   C3.02824,21.1856155,7.1771917,24,12,24c4.6758442,0,8.7214317-2.6558895,10.7003746-6.5535698   c0.305975-0.6026421,0.5625458-1.234972,0.7644005-1.8917618c-0.1286106,0.3778324-0.2752476,0.7471523-0.4388905,1.1069431   C21.1199665,20.8520508,16.9072742,23.75,12,23.75z" fill="#010101" opacity="0.1"/><path d="M12.8989258,11H8v2h2.8157349C10.4016113,14.161499,9.3019409,15,8,15c-1.6542969,0-3-1.3457031-3-3   s1.3457031-3,3-3c0.8271484,0,1.5771484,0.3364258,2.1203613,0.8796387l1.4134521-1.4134521C10.628418,7.560791,9.378418,7,8,7   c-2.7568359,0-5,2.2431641-5,5s2.2431641,5,5,5s5-2.2431641,5-5C13,11.6575928,12.9648438,11.3232422,12.8989258,11z" fill="#FFFFFF"/><linearGradient gradientUnits="userSpaceOnUse" id="SVGID_1_" x1="7.7380829" x2="20.3373985" y1="8.0211945" y2="20.6205101"><stop offset="0" style="stop-color:#010101;stop-opacity:0.1"/><stop offset="1" style="stop-color:#010101;stop-opacity:0"/></linearGradient><path d="M21.5,11v2H19v2.5h-2V13h-2.5v-1.567627l-2.9661865-2.9661865l-1.4134521,1.4134521   C9.5771484,9.3364258,8.8271484,9,8,9c-1.6542969,0-3,1.3457031-3,3s1.3457031,3,3,3c1.3019409,0,2.4016113-0.838501,2.8157349-2H8   v-2h4.8989258C12.9648438,11.3232422,13,11.6575928,13,12c0,2.7568359-2.2431641,5-5,5   c-1.368103,0-2.6079712-0.5544434-3.5116577-1.447937l0.0001221,0.0025635l8.4004517,8.4005127   c5.7416382-0.4219971,10.3562622-4.8742065,11.0211792-10.5450439L21.5,11z M19,11h2.5L19,8.5V11z" fill="url(#SVGID_1_)"/><linearGradient gradientUnits="userSpaceOnUse" id="XMLID_95_" x1="1.1216813" x2="22.8783092" y1="6.9273677" y2="17.0726509"><stop offset="0" style="stop-color:#FFFFFF;stop-opacity:0.2"/><stop offset="1" style="stop-color:#FFFFFF;stop-opacity:0"/></linearGradient><circle cx="12" cy="12" fill="url(#XMLID_95_)" id="XMLID_1017_" r="12"/></g><g/><g/><g/><g/><g/><g/><g/><g/><g/><g/><g/><g/><g/><g/><g/></svg>