<svg enable-background="new 0 0 256 256" height="512" viewBox="0 0 256 256" width="512" xmlns="http://www.w3.org/2000/svg"><g fill="#f2ba94"><path d="m85.519 146.098c-6.302 0-12.265-1.51-17.56-4.172v14.567l12.345 19.549h11.575l12.345-19.549v-15.156c-5.572 3.035-11.947 4.761-18.705 4.761z"/><path d="m127.403 76.743c-.86 0-1.703.069-2.526.197l.001 29.8c0 .888-.041 1.766-.099 2.64.857.138 1.729.229 2.625.229 9.076 0 16.433-7.357 16.433-16.433-.001-9.076-7.358-16.433-16.434-16.433z"/><path d="m46.16 106.739v-27.127c0-.893.001-2.672.001-2.672-.824-.128-1.667-.197-2.526-.197-9.076 0-16.433 7.357-16.433 16.433s7.357 16.433 16.433 16.433c.896 0 1.768-.091 2.625-.229-.06-.874-.1-1.753-.1-2.641z"/></g><path d="m91.413 58.987c-14.376 18.079-35.583 15.528-42.713 14.035-1.296-.271-2.539.705-2.54 2.029v.027 31.661c0 21.647 17.712 39.359 39.359 39.359 21.647 0 39.359-17.712 39.359-39.359v-35.06c0-.206-.002-.411-.006-.616-.022-1.116-.916-2.036-2.032-2.069-16.351-.479-24.966-6.96-28.277-10.205-.904-.886-2.363-.792-3.15.198z" fill="#f9d0b4"/><path d="m43.634 76.743c.86 0 1.702.073 2.526.2v-1.865c0-.009 0-.018 0-.027.001-1.324 1.244-2.301 2.54-2.029 7.13 1.492 28.337 4.043 42.713-14.035.788-.991 2.246-1.084 3.15-.198 3.31 3.245 11.926 9.725 28.277 10.205 1.116.033 2.01.953 2.032 2.069.004.205.006.41.006.616v5.264c.824-.128 1.666-.2 2.526-.2 4.43 0 8.442 1.761 11.397 4.611v-29.557c0-12.365-10.117-22.483-22.483-22.483-4.194 0-8.115 1.185-11.485 3.206-3.936-6.569-11.107-11.004-19.281-11.004h-11.544c-22.345 0-40.627 18.282-40.627 40.627v18.204c2.812-2.251 6.372-3.604 10.253-3.604z" fill="#893c1a"/><path d="m167.403 218.088h-21.053-14.238c-5.674 0-10.317-4.643-10.317-10.317v-12.85c0-5.674 4.643-10.317 10.317-10.317h14.238 18.109c-1.354-5.503-5.636-9.929-11.281-11.35l-14.771-3.718h-6.854c-3.168 0-6.013-1.449-7.91-3.716l-1.033-.26-18.388-9.066-12.345 19.549h-11.573l-12.345-19.549-18.388 9.066-30.567 7.694c-6.592 1.659-11.339 7.412-11.717 14.198l-4.762 58.158c-.348 4.249 3.007 7.89 7.27 7.89h152.592c4.263 0 7.618-3.641 7.27-7.89z" fill="#edf4fc"/><path d="m242.625 136.051h-111.072c-5.674 0-10.317 4.643-10.317 10.317v12.85c0 5.674 4.643 10.317 10.317 10.317h111.071c5.674 0 10.317-4.643 10.317-10.317v-12.85c.001-5.674-4.642-10.317-10.316-10.317z" fill="#edf4fc"/><path d="m243.183 184.604h-111.072c-5.674 0-10.317 4.643-10.317 10.317v12.85c0 5.674 4.643 10.317 10.317 10.317h111.071c5.674 0 10.317-4.643 10.317-10.317v-12.85c.001-5.674-4.642-10.317-10.316-10.317z" fill="#edf4fc"/><path d="m208.709 79.76h-41.626c-3.202 0-5.821 2.62-5.821 5.821v30.514c0 3.202 2.62 5.821 5.821 5.821h41.626c3.202 0 5.821-2.62 5.821-5.821v-30.514c0-3.202-2.619-5.821-5.821-5.821z" fill="#f5c84c"/><path d="m178.248 79.76v-11.845c0-5.319 4.328-9.647 9.647-9.647s9.647 4.328 9.647 9.647v11.845h11.161v-11.845c0-11.474-9.335-20.808-20.809-20.808s-20.809 9.335-20.809 20.808v11.845z" fill="#edf4fc"/><path d="m146.35 184.604h-14.238c-5.674 0-10.317 4.643-10.317 10.317v12.85c0 5.674 4.643 10.317 10.317 10.317h14.238z" fill="#fc657e"/><path d="m146.35 136.051h-14.796c-5.674 0-10.317 4.643-10.317 10.317v12.85c0 5.674 4.643 10.317 10.317 10.317h14.796z" fill="#70d6f9"/><circle cx="187.647" cy="98.102" fill="#edb311" r="6.139"/><path d="m154.575 21.122h-2.07v2.07c0 1.549-1.256 2.805-2.805 2.805s-2.805-1.256-2.805-2.805v-2.07h-2.069c-1.549 0-2.805-1.256-2.805-2.805s1.256-2.805 2.805-2.805h2.069v-2.07c0-1.549 1.256-2.805 2.805-2.805s2.805 1.256 2.805 2.805v2.07h2.07c1.549 0 2.805 1.256 2.805 2.805 0 1.55-1.256 2.805-2.805 2.805z" fill="#3caadc"/><path d="m238.601 88.892c-1.849-.334-3.355 1.047-3.355 2.749 0 1.635 1.434 3.086 3.355 2.749 1.269-.24 2.255-1.397 2.255-2.749-.001-1.351-.979-2.507-2.255-2.749z" fill="#fc8c48"/><path d="m33.601 120.892c-1.854-.335-3.355 1.052-3.355 2.749 0 1.479 1.184 2.805 2.805 2.805 1.541 0 2.805-1.252 2.805-2.805-.001-1.351-.979-2.507-2.255-2.749z" fill="#ef4460"/><path d="m125.601.05c-1.854-.335-3.355 1.052-3.355 2.749 0 1.549 1.249 2.805 2.805 2.805 1.491 0 2.805-1.2 2.805-2.805-.001-1.352-.979-2.508-2.255-2.749z" fill="#87d147"/><path d="m27.164 145.964c-3.995-.744-7.144-3.829-7.904-7.743-.038-.197-.313-.197-.351 0-.76 3.914-3.908 6.999-7.904 7.743-.201.037-.201.306 0 .344 3.995.744 7.144 3.829 7.904 7.743.038.197.313.197.351 0 .76-3.914 3.908-6.999 7.904-7.743.201-.038.201-.307 0-.344z" fill="#fc8c48"/><path d="m238.314 114.992c-2.486-.463-4.446-2.383-4.918-4.818-.024-.122-.194-.122-.218 0-.473 2.436-2.432 4.355-4.919 4.818-.125.023-.125.191 0 .214 2.486.463 4.446 2.383 4.919 4.818.024.122.194.122.218 0 .473-2.436 2.432-4.355 4.918-4.818.125-.024.125-.191 0-.214z" fill="#f5c84c"/><path d="m91.878 178.543h-11.574c-.858 0-1.656-.44-2.114-1.165l-12.345-19.549c-.252-.399-.386-.862-.386-1.335v-14.567c0-.867.45-1.673 1.188-2.128.738-.457 1.659-.496 2.435-.105 5.154 2.591 10.685 3.905 16.437 3.905 6.1 0 12.155-1.541 17.51-4.456.775-.421 1.714-.403 2.472.046.758.451 1.223 1.268 1.223 2.149v15.155c0 .473-.134.936-.386 1.335l-12.345 19.549c-.459.726-1.257 1.166-2.115 1.166zm-10.196-5h8.818l11.223-17.772v-10.457c-5.113 2.157-10.642 3.285-16.205 3.285-5.21 0-10.26-.948-15.06-2.823v9.995z"/><path d="m127.403 112.108c-.941 0-1.93-.085-3.021-.261-1.276-.205-2.185-1.348-2.098-2.637.064-.947.094-1.732.094-2.471l-.001-29.8c0-1.233.899-2.282 2.118-2.471.97-.15 1.949-.226 2.909-.226 10.439 0 18.933 8.493 18.933 18.933-.001 10.44-8.494 18.933-18.934 18.933zm-.027-5h.027c7.683 0 13.933-6.25 13.933-13.933s-6.25-13.933-13.933-13.933c-.009 0-.018 0-.026 0l.001 27.497c0 .122-.001.245-.002.369z"/><path d="m43.634 112.108c-10.439 0-18.933-8.493-18.933-18.933 0-10.439 8.493-18.933 18.933-18.933.96 0 1.938.076 2.909.226 1.219.188 2.118 1.238 2.118 2.471v29.799c0 .736.03 1.521.094 2.473.086 1.289-.823 2.431-2.098 2.636-1.093.176-2.082.261-3.023.261zm0-32.865c-7.683 0-13.933 6.25-13.933 13.933s6.25 13.933 13.933 13.933h.028c-.001-.124-.002-.247-.002-.369v-27.497c-.009 0-.017 0-.026 0z"/><path d="m85.519 148.599c-23.081 0-41.859-18.778-41.859-41.859v-31.661c.001-1.406.618-2.695 1.692-3.567 1.086-.882 2.493-1.222 3.861-.936 7.678 1.606 26.974 3.544 40.244-13.145.816-1.026 2.033-1.661 3.337-1.741 1.303-.083 2.584.398 3.519 1.314 2.754 2.7 10.86 9.03 26.6 9.492 2.451.072 4.409 2.056 4.458 4.518.004.223.007.444.007.666v35.061c0 23.08-18.778 41.858-41.859 41.858zm-36.859-73.034v31.174c0 20.324 16.535 36.859 36.859 36.859s36.859-16.535 36.859-36.859v-35.06c0-.066 0-.132-.001-.198-16.216-.568-25.2-6.753-29.265-10.617-15.074 18.614-37.242 16.125-44.452 14.701zm-.473-.096c.001 0 .001.001 0 0zm45.182-14.926c0 .001-.001.001-.002.002.001 0 .001-.001.002-.002z"/><path d="m138.802 83.854c-.636 0-1.261-.242-1.736-.701-2.615-2.522-6.046-3.911-9.662-3.911-.689 0-1.411.058-2.143.171-.723.11-1.456-.098-2.009-.573-.554-.475-.873-1.168-.873-1.898v-5.264c0-.066 0-.132-.001-.198-16.215-.568-25.2-6.753-29.265-10.617-15.076 18.615-37.243 16.126-44.453 14.702v1.377c0 .73-.319 1.423-.873 1.898s-1.287.682-2.009.573c-.732-.113-1.454-.171-2.144-.171-3.188 0-6.193 1.057-8.691 3.055-.75.6-1.778.718-2.645.301-.866-.417-1.417-1.292-1.417-2.253v-18.203c0-23.78 19.347-43.126 43.127-43.126h11.545c7.906 0 15.407 3.867 20.1 10.229 3.342-1.596 6.986-2.431 10.666-2.431 13.775 0 24.982 11.207 24.982 24.982v29.558c0 1.003-.6 1.909-1.522 2.301-.316.134-.648.199-.977.199zm-11.399-9.611c3.145 0 6.185.771 8.897 2.223v-24.67c0-11.019-8.964-19.982-19.982-19.982-3.563 0-7.09.985-10.2 2.85-.569.34-1.251.44-1.893.281-.644-.161-1.196-.571-1.537-1.14-3.618-6.038-10.184-9.789-17.136-9.789h-11.544c-21.023 0-38.127 17.104-38.127 38.126v13.756c2.443-1.105 5.106-1.702 7.854-1.655.194-1.074.76-2.036 1.617-2.731 1.086-.882 2.493-1.222 3.861-.936 7.678 1.606 26.974 3.544 40.244-13.145.816-1.026 2.033-1.661 3.337-1.742 1.297-.085 2.585.399 3.52 1.315 2.754 2.7 10.861 9.029 26.599 9.491 2.451.072 4.409 2.056 4.458 4.518.004.223.007.444.007.666v2.564z"/><path d="m136.555 256c-1.381 0-2.5-1.119-2.5-2.5v-34.801c0-1.381 1.119-2.5 2.5-2.5s2.5 1.119 2.5 2.5v34.801c0 1.381-1.119 2.5-2.5 2.5z"/><path d="m34.483 256c-1.381 0-2.5-1.119-2.5-2.5v-34.801c0-1.381 1.119-2.5 2.5-2.5s2.5 1.119 2.5 2.5v34.801c0 1.381-1.119 2.5-2.5 2.5z"/><path d="m85.788 125.997c-5.814 0-11.23-2.879-14.489-7.703-.773-1.144-.472-2.698.672-3.471s2.698-.473 3.471.672c2.328 3.445 6.195 5.501 10.346 5.501s8.019-2.057 10.346-5.501c.773-1.145 2.325-1.446 3.471-.672 1.144.773 1.445 2.327.672 3.471-3.258 4.823-8.674 7.703-14.489 7.703z"/><path d="m162.387 256h-152.592c-2.729 0-5.354-1.151-7.203-3.158-1.849-2.006-2.781-4.717-2.559-7.436l4.763-58.158c.437-7.857 5.903-14.481 13.598-16.418l30.31-7.629 18.15-8.949c1.145-.567 2.536-.175 3.219.907l11.609 18.384h8.818l11.609-18.384c.684-1.082 2.074-1.473 3.219-.907l18.15 8.949.776.195c.511.129.968.416 1.306.82 1.5 1.792 3.684 2.82 5.993 2.82h6.854c.206 0 .411.025.61.076l14.771 3.718c6.48 1.631 11.5 6.681 13.099 13.177.184.746.014 1.535-.46 2.14s-1.199.958-1.968.958h-32.348c-4.31 0-7.817 3.507-7.817 7.817v12.85c0 4.311 3.507 7.817 7.817 7.817h35.292c1.302 0 2.386.999 2.491 2.296l2.254 27.522c.223 2.72-.71 5.43-2.559 7.437-1.849 2.005-4.474 3.156-7.202 3.156zm-95.341-96.269-16.37 8.071c-.158.078-.324.139-.495.182l-30.567 7.694c-5.561 1.4-9.512 6.188-9.831 11.913l-4.767 58.223c-.111 1.351.334 2.643 1.252 3.64.919.997 2.171 1.546 3.527 1.546h152.592c1.355 0 2.607-.549 3.526-1.545.918-.997 1.363-2.29 1.253-3.64l-2.066-25.226h-32.988c-7.067 0-12.817-5.75-12.817-12.817v-12.85c0-7.067 5.75-12.817 12.817-12.817h28.726c-1.711-3.167-4.68-5.522-8.27-6.426l-14.47-3.642h-6.544c-3.51 0-6.84-1.44-9.261-3.978l-.293-.075c-.171-.043-.337-.104-.495-.182l-16.37-8.071-11.144 17.647c-.458.725-1.256 1.165-2.114 1.165h-11.573c-.858 0-1.656-.44-2.114-1.165z"/><path d="m242.625 172.036h-111.071c-7.067 0-12.817-5.75-12.817-12.817v-12.85c0-7.067 5.75-12.817 12.817-12.817h111.071c7.067 0 12.817 5.75 12.817 12.817v12.85c0 7.067-5.75 12.817-12.817 12.817zm-111.071-33.485c-4.311 0-7.817 3.507-7.817 7.817v12.85c0 4.311 3.507 7.817 7.817 7.817h111.071c4.311 0 7.817-3.507 7.817-7.817v-12.85c0-4.311-3.507-7.817-7.817-7.817z"/><path d="m243.183 220.588h-111.072c-7.067 0-12.817-5.75-12.817-12.817v-12.85c0-7.067 5.75-12.817 12.817-12.817h111.071c7.067 0 12.817 5.75 12.817 12.817v12.85c.001 7.067-5.749 12.817-12.816 12.817zm-111.072-33.484c-4.31 0-7.817 3.507-7.817 7.817v12.85c0 4.311 3.507 7.817 7.817 7.817h111.071c4.311 0 7.817-3.507 7.817-7.817v-12.85c0-4.31-3.507-7.817-7.817-7.817z"/><path d="m208.709 124.416h-41.627c-4.588 0-8.321-3.733-8.321-8.321v-30.514c0-4.588 3.733-8.321 8.321-8.321h41.627c4.588 0 8.321 3.733 8.321 8.321v30.514c0 4.588-3.733 8.321-8.321 8.321zm-41.627-42.156c-1.831 0-3.321 1.49-3.321 3.321v30.514c0 1.832 1.49 3.321 3.321 3.321h41.627c1.831 0 3.321-1.49 3.321-3.321v-30.514c0-1.832-1.49-3.321-3.321-3.321z"/><path d="m167.837 208.034c-.64 0-1.279-.244-1.768-.732l-7.808-7.809c-.977-.976-.977-2.559 0-3.536.977-.976 2.559-.976 3.535 0l7.808 7.809c.977.976.977 2.559 0 3.536-.488.488-1.127.732-1.767.732z"/><path d="m160.029 208.034c-.64 0-1.279-.244-1.768-.732-.977-.977-.977-2.56 0-3.536l7.808-7.809c.977-.977 2.559-.976 3.535 0 .977.977.977 2.56 0 3.536l-7.808 7.809c-.487.488-1.127.732-1.767.732z"/><path d="m188.3 208.034c-.64 0-1.279-.244-1.768-.732l-7.808-7.809c-.977-.976-.977-2.559 0-3.536.977-.976 2.559-.976 3.535 0l7.808 7.809c.977.976.977 2.559 0 3.536-.488.488-1.128.732-1.767.732z"/><path d="m180.492 208.034c-.64 0-1.279-.244-1.768-.732-.977-.977-.977-2.56 0-3.536l7.808-7.809c.977-.977 2.559-.976 3.535 0 .977.977.977 2.56 0 3.536l-7.808 7.809c-.488.488-1.127.732-1.767.732z"/><path d="m208.763 208.034c-.64 0-1.279-.244-1.768-.732l-7.809-7.809c-.977-.976-.977-2.559 0-3.535.977-.977 2.559-.977 3.535 0l7.809 7.809c.977.976.977 2.559 0 3.535-.488.488-1.128.732-1.767.732z"/><path d="m200.954 208.034c-.64 0-1.279-.244-1.768-.732-.977-.976-.977-2.559 0-3.535l7.809-7.809c.977-.977 2.559-.977 3.535 0 .977.976.977 2.559 0 3.535l-7.809 7.809c-.488.488-1.127.732-1.767.732z"/><path d="m229.226 208.034c-.64 0-1.279-.244-1.768-.732l-7.809-7.809c-.977-.976-.977-2.559 0-3.535.977-.977 2.559-.977 3.535 0l7.809 7.809c.977.976.977 2.559 0 3.535-.488.488-1.128.732-1.767.732z"/><path d="m221.417 208.034c-.64 0-1.279-.244-1.768-.732-.977-.976-.977-2.559 0-3.535l7.809-7.809c.977-.977 2.559-.977 3.535 0 .977.976.977 2.559 0 3.535l-7.809 7.809c-.488.488-1.127.732-1.767.732z"/><path d="m234.525 154.736h-73.666c-1.381 0-2.5-1.119-2.5-2.5s1.119-2.5 2.5-2.5h73.666c1.381 0 2.5 1.119 2.5 2.5s-1.119 2.5-2.5 2.5z"/><path d="m208.705 82.26h-11.162c-1.381 0-2.5-1.119-2.5-2.5v-11.845c0-3.941-3.206-7.147-7.147-7.147s-7.147 3.206-7.147 7.147v11.845c0 1.381-1.119 2.5-2.5 2.5h-11.161c-1.381 0-2.5-1.119-2.5-2.5v-11.845c0-12.853 10.456-23.309 23.309-23.309s23.31 10.456 23.31 23.309v11.845c-.002 1.381-1.121 2.5-2.502 2.5zm-8.662-5h6.162v-9.345c0-10.095-8.214-18.309-18.31-18.309s-18.309 8.213-18.309 18.309v9.345h6.161v-9.345c0-6.698 5.449-12.147 12.147-12.147s12.147 5.449 12.147 12.147v9.345z"/><path d="m146.35 220.588h-14.238c-7.067 0-12.817-5.75-12.817-12.817v-12.85c0-7.067 5.75-12.817 12.817-12.817h14.238c1.381 0 2.5 1.119 2.5 2.5v33.484c0 1.381-1.12 2.5-2.5 2.5zm-14.239-33.484c-4.31 0-7.817 3.507-7.817 7.817v12.85c0 4.311 3.507 7.817 7.817 7.817h11.738v-28.484z"/><path d="m146.35 172.036h-14.796c-7.067 0-12.817-5.75-12.817-12.817v-12.85c0-7.067 5.75-12.817 12.817-12.817h14.796c1.381 0 2.5 1.119 2.5 2.5v33.485c0 1.38-1.12 2.499-2.5 2.499zm-14.796-33.485c-4.311 0-7.817 3.507-7.817 7.817v12.85c0 4.311 3.507 7.817 7.817 7.817h12.296v-28.485h-12.296z"/><path d="m187.647 106.741c-4.764 0-8.639-3.875-8.639-8.639s3.875-8.639 8.639-8.639 8.639 3.875 8.639 8.639-3.875 8.639-8.639 8.639zm0-12.278c-2.007 0-3.639 1.632-3.639 3.639 0 2.006 1.632 3.639 3.639 3.639s3.639-1.632 3.639-3.639c0-2.006-1.632-3.639-3.639-3.639z"/><circle cx="71.02" cy="92.932" r="2.498"/><circle cx="100.55" cy="92.932" r="2.498"/><circle cx="85.53" cy="190.07" r="2.498"/><circle cx="85.53" cy="206.364" r="2.498"/><circle cx="85.53" cy="222.658" r="2.498"/><circle cx="85.53" cy="238.953" r="2.498"/></svg>